<svg xmlns="http://www.w3.org/2000/svg" width="128" height="128" viewBox="0 0 128 128">
  <circle cx="64" cy="64" r="60" fill="#1a73e8"/>
  <path d="M85 75.5v10a6.67 6.67 0 01-7.27 6.67A66 66 0 0148.9 81.93a65 65 0 01-20-20A66 66 0 0118.67 33.1 6.67 6.67 0 0125.33 26h10a6.67 6.67 0 016.67 5.73 42.8 42.8 0 002.33 9.37 6.67 6.67 0 01-1.5 7.03l-4.23 4.24a53.33 53.33 0 0020 20l4.23-4.24a6.67 6.67 0 017.04-1.5 42.8 42.8 0 009.36 2.34A6.67 6.67 0 0185 75.5z" fill="none" stroke="white" stroke-width="4" stroke-linecap="round" stroke-linejoin="round"/>
</svg>
